<?xml version="1.0" encoding="UTF-8"?>
<svg xmlns="http://www.w3.org/2000/svg" xmlns:xlink="http://www.w3.org/1999/xlink" width="48px" height="48px" viewBox="0 0 48 48" version="1.1">
<g id="surface1">
<path style=" stroke:none;fill-rule:nonzero;fill:rgb(94.901961%,92.941176%,85.490196%);fill-opacity:1;" d="M 39.457031 31.320312 C 34.984375 31.320312 31.320312 34.984375 31.320312 39.457031 C 31.320312 41.328125 31.972656 42.957031 32.949219 44.339844 L 6.101562 44.339844 C 4.71875 44.339844 3.660156 43.28125 3.660156 41.898438 L 3.660156 13.421875 L 44.339844 13.421875 L 44.339844 32.949219 C 42.957031 31.972656 41.246094 31.320312 39.457031 31.320312 Z M 39.457031 31.320312 "/>
<path style=" stroke:none;fill-rule:nonzero;fill:rgb(66.27451%,66.27451%,69.803922%);fill-opacity:1;" d="M 26.441406 21.558594 L 29.695312 21.558594 L 29.695312 18.304688 L 26.441406 18.304688 Z M 10.167969 37.832031 L 13.421875 37.832031 L 13.421875 34.578125 L 10.167969 34.578125 Z M 10.167969 29.695312 L 13.421875 29.695312 L 13.421875 26.441406 L 10.167969 26.441406 Z M 10.167969 21.558594 L 13.421875 21.558594 L 13.421875 18.304688 L 10.167969 18.304688 Z M 26.441406 37.832031 L 29.695312 37.832031 L 29.695312 34.578125 L 26.441406 34.578125 Z M 26.441406 29.695312 L 29.695312 29.695312 L 29.695312 26.441406 L 26.441406 26.441406 Z M 34.578125 29.695312 L 37.832031 29.695312 L 37.832031 26.441406 L 34.578125 26.441406 Z M 34.578125 21.558594 L 37.832031 21.558594 L 37.832031 18.304688 L 34.578125 18.304688 Z M 18.304688 37.832031 L 21.558594 37.832031 L 21.558594 34.578125 L 18.304688 34.578125 Z M 18.304688 29.695312 L 21.558594 29.695312 L 21.558594 26.441406 L 18.304688 26.441406 Z M 18.304688 21.558594 L 21.558594 21.558594 L 21.558594 18.304688 L 18.304688 18.304688 Z M 18.304688 21.558594 "/>
<path style=" stroke:none;fill-rule:nonzero;fill:rgb(92.54902%,95.686275%,96.862745%);fill-opacity:1;" d="M 13.421875 2.035156 L 13.421875 5.289062 C 13.421875 6.183594 12.691406 6.914062 11.796875 6.914062 C 11.390625 6.914062 10.984375 6.753906 10.65625 6.425781 C 10.332031 6.101562 10.167969 5.695312 10.167969 5.289062 L 10.167969 2.035156 C 10.167969 1.140625 10.902344 0.40625 11.796875 0.40625 C 12.203125 0.40625 12.609375 0.570312 12.9375 0.894531 C 13.261719 1.21875 13.421875 1.628906 13.421875 2.035156 Z M 37.832031 2.035156 L 37.832031 5.289062 C 37.832031 6.183594 37.097656 6.914062 36.203125 6.914062 C 35.714844 6.914062 35.308594 6.753906 35.0625 6.425781 C 34.738281 6.101562 34.578125 5.695312 34.578125 5.289062 L 34.578125 2.035156 C 34.578125 1.140625 35.308594 0.40625 36.203125 0.40625 C 36.691406 0.40625 37.097656 0.570312 37.34375 0.894531 C 37.667969 1.21875 37.832031 1.628906 37.832031 2.035156 Z M 29.695312 2.035156 L 29.695312 5.289062 C 29.695312 6.183594 28.960938 6.914062 28.066406 6.914062 C 27.578125 6.914062 27.171875 6.753906 26.929688 6.425781 C 26.601562 6.101562 26.441406 5.695312 26.441406 5.289062 L 26.441406 2.035156 C 26.441406 1.140625 27.171875 0.40625 28.066406 0.40625 C 28.554688 0.40625 28.960938 0.570312 29.207031 0.894531 C 29.53125 1.21875 29.695312 1.628906 29.695312 2.035156 Z M 21.558594 2.035156 L 21.558594 5.289062 C 21.558594 6.183594 20.828125 6.914062 19.933594 6.914062 C 19.445312 6.914062 19.039062 6.753906 18.792969 6.425781 C 18.46875 6.101562 18.304688 5.695312 18.304688 5.289062 L 18.304688 2.035156 C 18.304688 1.140625 19.039062 0.40625 19.933594 0.40625 C 20.421875 0.40625 20.828125 0.570312 21.070312 0.894531 C 21.398438 1.21875 21.558594 1.628906 21.558594 2.035156 Z M 21.558594 2.035156 "/>
<path style=" stroke:none;fill-rule:nonzero;fill:rgb(0%,52.941176%,37.254902%);fill-opacity:1;" d="M 47.59375 10.167969 L 47.59375 39.457031 C 47.59375 36.773438 46.292969 34.414062 44.339844 32.949219 L 44.339844 13.421875 L 3.660156 13.421875 L 3.660156 41.898438 C 3.660156 43.28125 4.71875 44.339844 6.101562 44.339844 L 32.949219 44.339844 C 34.414062 46.292969 36.773438 47.59375 39.457031 47.59375 L 3.660156 47.59375 C 2.035156 47.59375 0.40625 45.964844 0.40625 44.339844 L 0.40625 10.167969 Z M 47.59375 10.167969 "/>
<path style=" stroke:none;fill-rule:nonzero;fill:rgb(0%,52.941176%,37.254902%);fill-opacity:1;" d="M 47.59375 5.289062 L 47.59375 10.167969 L 0.40625 10.167969 L 0.40625 5.289062 C 0.40625 3.660156 2.035156 2.035156 3.660156 2.035156 L 10.167969 2.035156 L 10.167969 5.289062 C 10.167969 5.695312 10.332031 6.101562 10.65625 6.425781 C 10.984375 6.753906 11.390625 6.914062 11.796875 6.914062 C 12.691406 6.914062 13.421875 6.183594 13.421875 5.289062 L 13.421875 2.035156 L 18.304688 2.035156 L 18.304688 5.289062 C 18.304688 5.695312 18.46875 6.101562 18.792969 6.425781 C 19.117188 6.753906 19.527344 6.914062 19.933594 6.914062 C 20.828125 6.914062 21.558594 6.183594 21.558594 5.289062 L 21.558594 2.035156 L 26.441406 2.035156 L 26.441406 5.289062 C 26.441406 5.695312 26.601562 6.101562 26.929688 6.425781 C 27.253906 6.753906 27.660156 6.914062 28.066406 6.914062 C 28.960938 6.914062 29.695312 6.183594 29.695312 5.289062 L 29.695312 2.035156 L 34.578125 2.035156 L 34.578125 5.289062 C 34.578125 5.695312 34.738281 6.101562 35.066406 6.425781 C 35.390625 6.753906 35.796875 6.914062 36.203125 6.914062 C 37.097656 6.914062 37.832031 6.183594 37.832031 5.289062 L 37.832031 2.035156 L 44.339844 2.035156 C 45.964844 2.035156 47.59375 3.660156 47.59375 5.289062 "/>
<path style=" stroke:none;fill-rule:nonzero;fill:rgb(92.54902%,95.686275%,96.862745%);fill-opacity:1;" d="M 44.339844 32.949219 C 46.292969 34.414062 47.59375 36.773438 47.59375 39.457031 C 47.59375 43.933594 43.933594 47.59375 39.457031 47.59375 C 36.773438 47.59375 34.414062 46.292969 32.949219 44.339844 C 31.890625 42.957031 31.320312 41.246094 31.320312 39.457031 C 31.320312 34.984375 34.984375 31.320312 39.457031 31.320312 C 41.246094 31.320312 42.957031 31.972656 44.339844 32.949219 "/>
<path style=" stroke:none;fill-rule:nonzero;fill:rgb(31.764706%,33.72549%,37.254902%);fill-opacity:1;" d="M 39.457031 48 C 34.738281 48 30.914062 44.175781 30.914062 39.457031 C 30.914062 34.738281 34.738281 30.914062 39.457031 30.914062 C 44.175781 30.914062 48 34.738281 48 39.457031 C 48 44.175781 44.175781 48 39.457031 48 Z M 39.457031 31.730469 C 35.226562 31.730469 31.730469 35.226562 31.730469 39.457031 C 31.730469 43.6875 35.226562 47.1875 39.457031 47.1875 C 43.6875 47.1875 47.1875 43.6875 47.1875 39.457031 C 47.1875 35.226562 43.6875 31.730469 39.457031 31.730469 Z M 30.507812 48 L 3.660156 48 C 1.789062 48 0 46.210938 0 44.339844 L 0 10.167969 C 0 9.925781 0.164062 9.761719 0.40625 9.761719 L 44.339844 9.761719 C 44.582031 9.761719 44.746094 9.925781 44.746094 10.167969 C 44.746094 10.414062 44.582031 10.578125 44.339844 10.578125 L 0.8125 10.578125 L 0.8125 44.339844 C 0.8125 45.722656 2.277344 47.1875 3.660156 47.1875 L 30.507812 47.1875 C 30.753906 47.1875 30.914062 47.347656 30.914062 47.59375 C 30.914062 47.835938 30.753906 48 30.507812 48 Z M 28.882812 44.746094 L 6.101562 44.746094 C 4.554688 44.746094 3.253906 43.445312 3.253906 41.898438 L 3.253906 13.421875 C 3.253906 13.179688 3.417969 13.015625 3.660156 13.015625 L 44.339844 13.015625 C 44.582031 13.015625 44.746094 13.179688 44.746094 13.421875 L 44.746094 28.882812 C 44.746094 29.125 44.582031 29.289062 44.339844 29.289062 C 44.09375 29.289062 43.933594 29.125 43.933594 28.882812 L 43.933594 13.832031 L 4.066406 13.832031 L 4.066406 41.898438 C 4.066406 43.039062 4.960938 43.933594 6.101562 43.933594 L 28.882812 43.933594 C 29.125 43.933594 29.289062 44.09375 29.289062 44.339844 C 29.289062 44.582031 29.125 44.746094 28.882812 44.746094 Z M 44.339844 39.863281 L 39.457031 39.863281 C 39.214844 39.863281 39.050781 39.703125 39.050781 39.457031 L 39.050781 36.203125 C 39.050781 35.960938 39.214844 35.796875 39.457031 35.796875 C 39.703125 35.796875 39.863281 35.960938 39.863281 36.203125 L 39.863281 39.050781 L 44.339844 39.050781 C 44.582031 39.050781 44.746094 39.214844 44.746094 39.457031 C 44.746094 39.703125 44.582031 39.863281 44.339844 39.863281 Z M 28.066406 38.238281 L 26.441406 38.238281 C 26.195312 38.238281 26.035156 38.074219 26.035156 37.832031 L 26.035156 34.578125 C 26.035156 34.332031 26.195312 34.167969 26.441406 34.167969 L 28.066406 34.167969 C 28.3125 34.167969 28.472656 34.332031 28.472656 34.578125 C 28.472656 34.820312 28.3125 34.984375 28.066406 34.984375 L 26.847656 34.984375 L 26.847656 37.421875 L 28.066406 37.421875 C 28.3125 37.421875 28.472656 37.585938 28.472656 37.832031 C 28.472656 38.074219 28.3125 38.238281 28.066406 38.238281 Z M 21.558594 38.238281 L 18.304688 38.238281 C 18.0625 38.238281 17.898438 38.074219 17.898438 37.832031 L 17.898438 34.578125 C 17.898438 34.332031 18.0625 34.167969 18.304688 34.167969 L 21.558594 34.167969 C 21.804688 34.167969 21.964844 34.332031 21.964844 34.578125 L 21.964844 37.832031 C 21.964844 38.074219 21.804688 38.238281 21.558594 38.238281 Z M 18.710938 37.421875 L 21.152344 37.421875 L 21.152344 34.984375 L 18.710938 34.984375 Z M 13.421875 38.238281 L 10.167969 38.238281 C 9.925781 38.238281 9.761719 38.074219 9.761719 37.832031 L 9.761719 34.578125 C 9.761719 34.332031 9.925781 34.167969 10.167969 34.167969 L 13.421875 34.167969 C 13.667969 34.167969 13.832031 34.332031 13.832031 34.578125 L 13.832031 37.832031 C 13.832031 38.074219 13.667969 38.238281 13.421875 38.238281 Z M 10.578125 37.421875 L 13.015625 37.421875 L 13.015625 34.984375 L 10.578125 34.984375 Z M 47.59375 30.914062 C 47.347656 30.914062 47.1875 30.753906 47.1875 30.507812 L 47.1875 5.289062 C 47.1875 3.90625 45.722656 2.441406 44.339844 2.441406 L 41.085938 2.441406 C 40.839844 2.441406 40.679688 2.277344 40.679688 2.035156 C 40.679688 1.789062 40.839844 1.628906 41.085938 1.628906 L 44.339844 1.628906 C 46.210938 1.628906 48 3.417969 48 5.289062 L 48 30.507812 C 48 30.753906 47.835938 30.914062 47.59375 30.914062 Z M 29.695312 30.101562 L 26.441406 30.101562 C 26.195312 30.101562 26.035156 29.9375 26.035156 29.695312 L 26.035156 26.441406 C 26.035156 26.195312 26.195312 26.035156 26.441406 26.035156 L 29.695312 26.035156 C 29.9375 26.035156 30.101562 26.195312 30.101562 26.441406 L 30.101562 29.695312 C 30.101562 29.9375 29.9375 30.101562 29.695312 30.101562 Z M 26.847656 29.289062 L 29.289062 29.289062 L 29.289062 26.847656 L 26.847656 26.847656 Z M 21.558594 30.101562 L 18.304688 30.101562 C 18.0625 30.101562 17.898438 29.9375 17.898438 29.695312 L 17.898438 26.441406 C 17.898438 26.195312 18.0625 26.035156 18.304688 26.035156 L 21.558594 26.035156 C 21.804688 26.035156 21.964844 26.195312 21.964844 26.441406 L 21.964844 29.695312 C 21.964844 29.9375 21.804688 30.101562 21.558594 30.101562 Z M 18.710938 29.289062 L 21.152344 29.289062 L 21.152344 26.847656 L 18.710938 26.847656 Z M 13.421875 30.101562 L 10.167969 30.101562 C 9.925781 30.101562 9.761719 29.9375 9.761719 29.695312 L 9.761719 26.441406 C 9.761719 26.195312 9.925781 26.035156 10.167969 26.035156 L 13.421875 26.035156 C 13.667969 26.035156 13.832031 26.195312 13.832031 26.441406 L 13.832031 29.695312 C 13.832031 29.9375 13.667969 30.101562 13.421875 30.101562 Z M 10.578125 29.289062 L 13.015625 29.289062 L 13.015625 26.847656 L 10.578125 26.847656 Z M 37.832031 28.472656 C 37.585938 28.472656 37.421875 28.3125 37.421875 28.066406 L 37.421875 26.847656 L 34.984375 26.847656 L 34.984375 28.066406 C 34.984375 28.3125 34.820312 28.472656 34.578125 28.472656 C 34.332031 28.472656 34.167969 28.3125 34.167969 28.066406 L 34.167969 26.441406 C 34.167969 26.195312 34.332031 26.035156 34.578125 26.035156 L 37.832031 26.035156 C 38.074219 26.035156 38.238281 26.195312 38.238281 26.441406 L 38.238281 28.066406 C 38.238281 28.3125 38.074219 28.472656 37.832031 28.472656 Z M 37.832031 21.964844 L 34.578125 21.964844 C 34.332031 21.964844 34.167969 21.804688 34.167969 21.558594 L 34.167969 18.304688 C 34.167969 18.0625 34.332031 17.898438 34.578125 17.898438 L 37.832031 17.898438 C 38.074219 17.898438 38.238281 18.0625 38.238281 18.304688 L 38.238281 21.558594 C 38.238281 21.804688 38.074219 21.964844 37.832031 21.964844 Z M 34.984375 21.152344 L 37.421875 21.152344 L 37.421875 18.710938 L 34.984375 18.710938 Z M 29.695312 21.964844 L 26.441406 21.964844 C 26.195312 21.964844 26.035156 21.804688 26.035156 21.558594 L 26.035156 18.304688 C 26.035156 18.0625 26.195312 17.898438 26.441406 17.898438 L 29.695312 17.898438 C 29.9375 17.898438 30.101562 18.0625 30.101562 18.304688 L 30.101562 21.558594 C 30.101562 21.804688 29.9375 21.964844 29.695312 21.964844 Z M 26.847656 21.152344 L 29.289062 21.152344 L 29.289062 18.710938 L 26.847656 18.710938 Z M 21.558594 21.964844 L 18.304688 21.964844 C 18.0625 21.964844 17.898438 21.804688 17.898438 21.558594 L 17.898438 18.304688 C 17.898438 18.0625 18.0625 17.898438 18.304688 17.898438 L 21.558594 17.898438 C 21.804688 17.898438 21.964844 18.0625 21.964844 18.304688 L 21.964844 21.558594 C 21.964844 21.804688 21.804688 21.964844 21.558594 21.964844 Z M 18.710938 21.152344 L 21.152344 21.152344 L 21.152344 18.710938 L 18.710938 18.710938 Z M 13.421875 21.964844 L 10.167969 21.964844 C 9.925781 21.964844 9.761719 21.804688 9.761719 21.558594 L 9.761719 18.304688 C 9.761719 18.0625 9.925781 17.898438 10.167969 17.898438 L 13.421875 17.898438 C 13.667969 17.898438 13.832031 18.0625 13.832031 18.304688 L 13.832031 21.558594 C 13.832031 21.804688 13.667969 21.964844 13.421875 21.964844 Z M 10.578125 21.152344 L 13.015625 21.152344 L 13.015625 18.710938 L 10.578125 18.710938 Z M 36.203125 7.320312 C 35.0625 7.320312 34.167969 6.425781 34.167969 5.289062 L 34.167969 2.035156 C 34.167969 0.894531 35.0625 0 36.203125 0 C 37.34375 0 38.238281 0.894531 38.238281 2.035156 L 38.238281 5.289062 C 38.238281 6.425781 37.34375 7.320312 36.203125 7.320312 Z M 36.203125 0.8125 C 35.550781 0.8125 34.984375 1.382812 34.984375 2.035156 L 34.984375 5.289062 C 34.984375 5.9375 35.550781 6.507812 36.203125 6.507812 C 36.855469 6.507812 37.421875 5.9375 37.421875 5.289062 L 37.421875 2.035156 C 37.421875 1.382812 36.855469 0.8125 36.203125 0.8125 Z M 28.066406 7.320312 C 26.929688 7.320312 26.035156 6.425781 26.035156 5.289062 L 26.035156 2.035156 C 26.035156 0.894531 26.929688 0 28.066406 0 C 29.207031 0 30.101562 0.894531 30.101562 2.035156 L 30.101562 5.289062 C 30.101562 6.425781 29.207031 7.320312 28.066406 7.320312 Z M 28.066406 0.8125 C 27.417969 0.8125 26.847656 1.382812 26.847656 2.035156 L 26.847656 5.289062 C 26.847656 5.9375 27.417969 6.507812 28.066406 6.507812 C 28.71875 6.507812 29.289062 5.9375 29.289062 5.289062 L 29.289062 2.035156 C 29.289062 1.382812 28.71875 0.8125 28.066406 0.8125 Z M 19.933594 7.320312 C 18.792969 7.320312 17.898438 6.425781 17.898438 5.289062 L 17.898438 2.035156 C 17.898438 0.894531 18.792969 0 19.933594 0 C 21.070312 0 21.964844 0.894531 21.964844 2.035156 L 21.964844 5.289062 C 21.964844 6.425781 21.070312 7.320312 19.933594 7.320312 Z M 19.933594 0.8125 C 19.28125 0.8125 18.710938 1.382812 18.710938 2.035156 L 18.710938 5.289062 C 18.710938 5.9375 19.28125 6.507812 19.933594 6.507812 C 20.582031 6.507812 21.152344 5.9375 21.152344 5.289062 L 21.152344 2.035156 C 21.152344 1.382812 20.582031 0.8125 19.933594 0.8125 Z M 11.796875 7.320312 C 10.65625 7.320312 9.761719 6.425781 9.761719 5.289062 L 9.761719 2.035156 C 9.761719 0.894531 10.65625 0 11.796875 0 C 12.9375 0 13.832031 0.894531 13.832031 2.035156 L 13.832031 5.289062 C 13.832031 6.425781 12.9375 7.320312 11.796875 7.320312 Z M 11.796875 0.8125 C 11.144531 0.8125 10.578125 1.382812 10.578125 2.035156 L 10.578125 5.289062 C 10.578125 5.9375 11.144531 6.507812 11.796875 6.507812 C 12.449219 6.507812 13.015625 5.9375 13.015625 5.289062 L 13.015625 2.035156 C 13.015625 1.382812 12.449219 0.8125 11.796875 0.8125 Z M 0.40625 7.320312 C 0.164062 7.320312 0 7.160156 0 6.914062 L 0 5.289062 C 0 3.417969 1.789062 1.628906 3.660156 1.628906 L 6.914062 1.628906 C 7.160156 1.628906 7.320312 1.789062 7.320312 2.035156 C 7.320312 2.277344 7.160156 2.441406 6.914062 2.441406 L 3.660156 2.441406 C 2.277344 2.441406 0.8125 3.90625 0.8125 5.289062 L 0.8125 6.914062 C 0.8125 7.160156 0.652344 7.320312 0.40625 7.320312 Z M 0.40625 7.320312 "/>
</g>
</svg>
